<svg xmlns="http://www.w3.org/2000/svg" width="96" height="96" viewBox="0 0 96 96" shape-rendering="crispEdges"><rect x="0" y="0" width="12" height="6" fill="#222c1a"/><rect x="12" y="0" width="30" height="6" fill="#2d3722"/><rect x="42" y="0" width="12" height="6" fill="#3a4529"/><rect x="54" y="0" width="24" height="6" fill="#46402a"/><rect x="78" y="0" width="12" height="6" fill="#3a4529"/><rect x="90" y="0" width="6" height="6" fill="#222c1a"/><rect x="0" y="6" width="24" height="6" fill="#222c1a"/><rect x="24" y="6" width="24" height="6" fill="#2d3722"/><rect x="48" y="6" width="6" height="6" fill="#222c1a"/><rect x="54" y="6" width="24" height="6" fill="#46402a"/><rect x="78" y="6" width="12" height="6" fill="#2d3722"/><rect x="90" y="6" width="6" height="6" fill="#222c1a"/><rect x="0" y="12" width="18" height="6" fill="#222c1a"/><rect x="18" y="12" width="18" height="6" fill="#46402a"/><rect x="36" y="12" width="18" height="6" fill="#2d3722"/><rect x="54" y="12" width="24" height="6" fill="#46402a"/><rect x="78" y="12" width="12" height="6" fill="#2d3722"/><rect x="90" y="12" width="6" height="6" fill="#222c1a"/><rect x="0" y="18" width="18" height="6" fill="#222c1a"/><rect x="18" y="18" width="18" height="6" fill="#46402a"/><rect x="36" y="18" width="24" height="6" fill="#2d3722"/><rect x="60" y="18" width="12" height="6" fill="#46402a"/><rect x="72" y="18" width="12" height="6" fill="#3a4529"/><rect x="84" y="18" width="12" height="6" fill="#2d3722"/><rect x="0" y="24" width="12" height="6" fill="#222c1a"/><rect x="12" y="24" width="6" height="6" fill="#2d3722"/><rect x="18" y="24" width="12" height="6" fill="#46402a"/><rect x="30" y="24" width="24" height="6" fill="#2d3722"/><rect x="54" y="24" width="12" height="6" fill="#46402a"/><rect x="66" y="24" width="24" height="6" fill="#3a4529"/><rect x="90" y="24" width="6" height="6" fill="#222c1a"/><rect x="0" y="30" width="6" height="6" fill="#46402a"/><rect x="6" y="30" width="48" height="6" fill="#2d3722"/><rect x="54" y="30" width="18" height="6" fill="#46402a"/><rect x="72" y="30" width="6" height="6" fill="#2d3722"/><rect x="78" y="30" width="12" height="6" fill="#3a4529"/><rect x="90" y="30" width="6" height="6" fill="#46402a"/><rect x="0" y="36" width="6" height="6" fill="#46402a"/><rect x="6" y="36" width="48" height="6" fill="#2d3722"/><rect x="54" y="36" width="12" height="6" fill="#46402a"/><rect x="66" y="36" width="24" height="6" fill="#2d3722"/><rect x="90" y="36" width="6" height="6" fill="#46402a"/><rect x="0" y="42" width="6" height="6" fill="#46402a"/><rect x="6" y="42" width="48" height="6" fill="#2d3722"/><rect x="54" y="42" width="24" height="6" fill="#46402a"/><rect x="78" y="42" width="18" height="6" fill="#2d3722"/><rect x="0" y="48" width="48" height="6" fill="#2d3722"/><rect x="48" y="48" width="24" height="6" fill="#3a4529"/><rect x="72" y="48" width="6" height="6" fill="#222c1a"/><rect x="78" y="48" width="18" height="6" fill="#2d3722"/><rect x="0" y="54" width="6" height="6" fill="#46402a"/><rect x="6" y="54" width="18" height="6" fill="#2d3722"/><rect x="24" y="54" width="30" height="6" fill="#222c1a"/><rect x="54" y="54" width="24" height="6" fill="#46402a"/><rect x="78" y="54" width="6" height="6" fill="#222c1a"/><rect x="84" y="54" width="12" height="6" fill="#46402a"/><rect x="0" y="60" width="12" height="6" fill="#46402a"/><rect x="12" y="60" width="12" height="6" fill="#2d3722"/><rect x="24" y="60" width="30" height="6" fill="#222c1a"/><rect x="54" y="60" width="18" height="6" fill="#46402a"/><rect x="72" y="60" width="18" height="6" fill="#222c1a"/><rect x="90" y="60" width="6" height="6" fill="#46402a"/><rect x="0" y="66" width="12" height="6" fill="#46402a"/><rect x="12" y="66" width="18" height="6" fill="#2d3722"/><rect x="30" y="66" width="24" height="6" fill="#222c1a"/><rect x="54" y="66" width="6" height="6" fill="#2d3722"/><rect x="60" y="66" width="6" height="6" fill="#46402a"/><rect x="66" y="66" width="12" height="6" fill="#222c1a"/><rect x="78" y="66" width="12" height="6" fill="#2d3722"/><rect x="90" y="66" width="6" height="6" fill="#46402a"/><rect x="0" y="72" width="24" height="6" fill="#46402a"/><rect x="24" y="72" width="6" height="6" fill="#2d3722"/><rect x="30" y="72" width="6" height="6" fill="#222c1a"/><rect x="36" y="72" width="12" height="6" fill="#3a4529"/><rect x="48" y="72" width="18" height="6" fill="#2d3722"/><rect x="66" y="72" width="12" height="6" fill="#222c1a"/><rect x="78" y="72" width="18" height="6" fill="#2d3722"/><rect x="0" y="78" width="6" height="6" fill="#2d3722"/><rect x="6" y="78" width="12" height="6" fill="#46402a"/><rect x="18" y="78" width="18" height="6" fill="#2d3722"/><rect x="36" y="78" width="12" height="6" fill="#3a4529"/><rect x="48" y="78" width="18" height="6" fill="#2d3722"/><rect x="66" y="78" width="6" height="6" fill="#3a4529"/><rect x="72" y="78" width="6" height="6" fill="#46402a"/><rect x="78" y="78" width="18" height="6" fill="#2d3722"/><rect x="0" y="84" width="36" height="6" fill="#2d3722"/><rect x="36" y="84" width="30" height="6" fill="#3a4529"/><rect x="66" y="84" width="12" height="6" fill="#46402a"/><rect x="78" y="84" width="6" height="6" fill="#3a4529"/><rect x="84" y="84" width="12" height="6" fill="#222c1a"/><rect x="0" y="90" width="6" height="6" fill="#222c1a"/><rect x="6" y="90" width="36" height="6" fill="#2d3722"/><rect x="42" y="90" width="18" height="6" fill="#3a4529"/><rect x="60" y="90" width="24" height="6" fill="#46402a"/><rect x="84" y="90" width="12" height="6" fill="#222c1a"/></svg>